<svg width="512" height="512" viewBox="0 0 512 512" fill="none" xmlns="http://www.w3.org/2000/svg">
<path d="M124.885 419.115L92.885 387.115C89.815 384.047 85.193 383.144 81.194 384.832C6.208 416.491 0 458.005 0 501.333C0 507.224 4.776 512 10.667 512C53.995 512 95.51 505.792 127.147 430.805C128.841 426.811 127.946 422.189 124.885 419.115Z" fill="#FFC107"/>
<path d="M188.885 397.781L114.218 323.114C112.052 320.88 108.998 319.737 105.898 319.999C102.813 320.228 99.98 321.785 98.133 324.266L66.133 366.933C63.962 369.829 63.408 373.628 64.661 377.024C70.155 390.431 78.246 402.618 88.469 412.885L99.136 423.552C109.403 433.775 121.591 441.866 134.997 447.36C136.173 447.787 137.415 448.004 138.666 448C140.974 448 143.22 447.251 145.066 445.867L187.733 413.867C192.445 410.332 193.399 403.646 189.864 398.933C189.564 398.534 189.237 398.156 188.885 397.803V397.781Z" fill="#E53935"/>
<path d="M314.112 331.797C310.503 329.994 306.185 330.382 302.955 332.8L217.622 396.8C214.936 398.814 213.355 401.976 213.355 405.333V480C213.355 485.891 218.131 490.667 224.022 490.667C226.33 490.667 228.576 489.918 230.422 488.534L315.755 424.534C318.441 422.52 320.022 419.358 320.022 416.001V341.334C320.017 337.292 317.729 333.6 314.112 331.797Z" fill="#F44336"/>
<path d="M180.203 197.888C178.395 194.279 174.704 192 170.667 192H96.0001C92.6431 192 89.4811 193.581 87.4671 196.267L23.4671 281.6C19.9321 286.313 20.8871 292.999 25.6001 296.533C27.4461 297.918 29.6921 298.666 32.0001 298.666H106.667C110.024 298.666 113.186 297.085 115.2 294.399L179.2 209.066C181.626 205.832 182.014 201.503 180.203 197.888Z" fill="#F44336"/>
<path d="M501.333 0C393.365 0 294.4 22.315 87.467 302.933C84.817 306.522 84.681 311.382 87.126 315.114C100.169 334.704 114.903 353.114 131.158 370.133L141.825 380.8C158.844 397.055 177.254 411.789 196.844 424.832C200.577 427.31 205.46 427.19 209.068 424.533C489.685 217.6 512 118.635 512 10.667C512 4.776 507.224 0 501.333 0Z" fill="#CFD8DC"/>
<path d="M352 202.667C375.564 202.667 394.667 183.564 394.667 160C394.667 136.436 375.564 117.333 352 117.333C328.436 117.333 309.333 136.436 309.333 160C309.333 183.564 328.436 202.667 352 202.667Z" fill="#FAFAFA"/>
<path d="M352 213.333C322.545 213.333 298.667 189.455 298.667 160C298.667 130.545 322.545 106.667 352 106.667C381.455 106.667 405.333 130.545 405.333 160C405.333 189.455 381.455 213.333 352 213.333ZM352 128C334.327 128 320 142.327 320 160C320 177.673 334.327 192 352 192C369.673 192 384 177.673 384 160C384 142.327 369.673 128 352 128Z" fill="#F44336"/>
</svg>
