<svg id="Layer_1" data-name="Layer 1" xmlns="http://www.w3.org/2000/svg" viewBox="0 0 512 512"><defs><style>.cls-1{fill:#ffd38d;}.cls-2{opacity:0.1;}</style></defs><title>star-flat</title><path class="cls-1" d="M505.68,207,386.23,326.48,426,485.4a21.38,21.38,0,0,1-8.64,22.82A21.68,21.68,0,0,1,405.32,512,21.06,21.06,0,0,1,392.95,508L256,410.21,119.05,508a21.16,21.16,0,0,1-24.42.21A21.38,21.38,0,0,1,86,485.4l39.78-158.92L6.32,207a21.18,21.18,0,0,1-4.69-23.25,21.43,21.43,0,0,1,19.73-13.12H177.18L236.06,13.87a21.28,21.28,0,0,1,39.89,0l58.87,156.79H490.64a21.43,21.43,0,0,1,19.73,13.12A21.18,21.18,0,0,1,505.68,207Z"/><g class="cls-2"><path d="M505.68,207,386.23,326.48,426,485.4a21.38,21.38,0,0,1-8.64,22.82A21.68,21.68,0,0,1,405.32,512,21.06,21.06,0,0,1,392.95,508L256,410.21V0a21.33,21.33,0,0,1,19.94,13.87l58.87,156.79H490.64a21.43,21.43,0,0,1,19.73,13.12A21.18,21.18,0,0,1,505.68,207Z"/></g></svg>