<svg width="480" height="512" viewBox="0 0 480 512" fill="none" xmlns="http://www.w3.org/2000/svg">
<path d="M474.186 276.267C450.974 246.872 434.335 238.337 434.335 238.337H45.5613C45.5613 238.337 28.9228 246.872 5.71078 276.267C-4.10479 288.697 -0.902984 306.918 12.5192 315.325C41.6662 333.582 92.4149 369.882 140.343 426.253H339.553C387.482 369.882 438.23 333.582 467.377 315.325C480.8 306.918 484.001 288.697 474.186 276.267Z" fill="#FF748F"/>
<path d="M170.239 419.623C109.927 348.688 46.0671 303.008 9.38954 280.035C7.89269 279.098 6.50091 278.058 5.20907 276.94C-3.97809 289.347 -0.663996 307.068 12.5203 315.326C41.6672 333.583 92.416 369.883 140.344 426.254L170.239 419.623Z" fill="#FD5F7E"/>
<path d="M28.3387 211.609C28.3387 94.9281 123.267 0 239.948 0C356.631 0 451.558 94.9281 451.558 211.609H28.3387Z" fill="#77718C"/>
<path d="M260.552 1.00546C253.77 0.347171 246.9 0 239.948 0C123.267 0 28.3387 94.9281 28.3387 211.609H69.5459C69.5459 101.88 153.504 11.3979 260.552 1.00546Z" fill="#5C586F"/>
<path d="M416.104 271.514C439.119 271.514 457.776 252.857 457.776 229.843C457.776 206.828 439.119 188.171 416.104 188.171C393.089 188.171 374.432 206.828 374.432 229.843C374.432 252.857 393.089 271.514 416.104 271.514Z" fill="#FFBD86"/>
<path d="M318.611 372.152C318.611 372.152 401.325 414.993 401.325 512H84.3785C84.3785 414.992 167.093 372.152 167.093 372.152H318.611Z" fill="#76E6D5"/>
<path d="M192.847 372.152H167.093C167.093 372.152 84.3785 414.993 84.3785 512H110.133C110.133 414.992 192.847 372.152 192.847 372.152Z" fill="#00D6BC"/>
<path d="M380.387 105.265C367.455 88.2154 344.273 82.7514 324.92 91.8829C304.561 101.488 274.484 111.932 239.948 111.932C205.413 111.932 175.337 101.489 154.979 91.8839C135.438 82.6648 112.182 88.4483 99.178 105.704C76.6995 135.531 63.4802 172.73 63.7975 213.032C64.5732 311.253 144.64 389.33 242.851 387.743C338.8 386.192 416.103 307.928 416.103 211.611C416.104 171.658 402.802 134.816 380.387 105.265Z" fill="#FED2A4"/>
<path d="M105.005 213.032C104.686 172.73 117.906 135.532 140.385 105.703C144.7 99.978 150.145 95.5256 156.206 92.4556C155.795 92.264 155.382 92.0734 154.979 91.8839C135.438 82.6648 112.182 88.4482 99.1781 105.704C81.3971 129.297 69.4172 157.506 65.3408 188.211C64.8288 188.191 64.3167 188.171 63.7914 188.171C40.7761 188.171 22.1195 206.828 22.1195 229.844C22.1195 252.859 40.7771 271.516 63.7914 271.516C67.3939 271.516 70.6884 271.058 73.6821 270.198C98.0469 339.828 164.704 389.006 242.851 387.743C248.819 387.646 254.714 387.252 260.523 386.576C173.368 376.505 105.718 303.275 105.005 213.032Z" fill="#FFBD86"/>
<path d="M374.331 169.878C368.393 150.792 346.886 141.44 328.904 150.17L239.948 193.359L150.991 150.17C133.009 141.44 111.503 150.792 105.564 169.878C101.46 183.069 99.2471 197.087 99.2471 211.613C99.2471 230.542 103.007 248.61 109.818 265.11C116.933 282.349 137.307 289.819 154.084 281.673L239.947 239.986L325.811 281.673C342.588 289.819 362.961 282.349 370.077 265.11C376.887 248.609 380.647 230.542 380.647 211.613C380.648 197.086 378.435 183.069 374.331 169.878Z" fill="#FF748F"/>
<path d="M186.652 208.057C175.019 203.199 163.639 200.306 154.104 198.586C147.02 197.308 140.484 202.701 140.348 209.898C140.31 211.902 140.488 213.947 140.902 216.007C143.612 229.474 156.045 239.078 169.759 238.291C179.598 237.727 187.805 232.228 192.325 224.46C195.806 218.477 193.04 210.726 186.652 208.057Z" fill="#F9F097"/>
<path d="M293.245 208.057C304.877 203.199 316.258 200.306 325.792 198.586C332.877 197.308 339.412 202.701 339.548 209.898C339.586 211.902 339.408 213.947 338.994 216.007C336.285 229.474 323.851 239.078 310.138 238.291C300.298 237.727 292.092 232.228 287.571 224.46C284.09 218.477 286.856 210.726 293.245 208.057Z" fill="#F9F097"/>
<path d="M239.948 291.793C230.225 291.793 220.979 287.581 214.58 280.239C211.777 277.022 212.112 272.142 215.329 269.338C218.545 266.535 223.425 266.868 226.23 270.086C229.694 274.06 234.694 276.339 239.948 276.339C245.204 276.339 250.204 274.06 253.666 270.086C256.468 266.868 261.35 266.534 264.566 269.337C267.784 272.14 268.12 277.021 265.316 280.238C258.918 287.581 249.671 291.793 239.948 291.793Z" fill="#423E4F"/>
<path d="M138.256 512V463.241C138.256 458.974 141.714 455.514 145.982 455.514C150.25 455.514 153.709 458.974 153.709 463.241V512H138.256Z" fill="#00D6BC"/>
<path d="M326.188 512V463.241C326.188 458.974 329.646 455.514 333.914 455.514C338.182 455.514 341.64 458.974 341.64 463.241V512H326.188Z" fill="#00D6BC"/>
<path d="M269.219 443.799L256.201 436.679L249.082 423.662C245.132 416.441 234.762 416.441 230.813 423.662L223.693 436.679L210.676 443.799C203.455 447.748 203.455 458.118 210.676 462.068L223.693 469.188L230.813 482.205C234.762 489.426 245.132 489.426 249.082 482.205L256.201 469.188L269.219 462.068C276.44 458.119 276.44 447.749 269.219 443.799Z" fill="#F9F097"/>
</svg>
