<svg width="42" height="32" viewBox="0 0 42 32" fill="none" xmlns="http://www.w3.org/2000/svg">
<path d="M9.31599 31.3331H40.0884C41.2475 31.3331 41.9711 30.0776 41.3901 29.0747L27.2282 0.935895C26.5054 -0.311965 24.7037 -0.311965 23.9808 0.935895L8.91428 30.6361C8.73504 30.9456 8.95833 31.3331 9.31599 31.3331Z" fill="#AAA8A0"/>
<path d="M1.07534 31.3331H32.9268L18.3634 10.6831C17.0324 9.13322 14.6334 9.13322 13.3023 10.6831L0.261102 29.5606C-0.336578 30.2565 0.157907 31.3331 1.07534 31.3331Z" fill="#C1BFB4"/>
<path d="M27.2281 0.935955C26.5053 -0.311822 24.7035 -0.311822 23.9807 0.935955L19.7007 9.37303C20.9306 9.44333 21.4501 10.3733 21.4046 11.1145C21.3688 11.6987 21.7026 12.2675 22.2161 12.5483C23.5921 13.3007 24.9819 12.3243 24.9819 11.0233C24.9819 8.39276 25.5891 7.66211 26.5667 7.58049C26.6322 7.58598 26.695 7.59812 26.7626 7.59812C28.406 7.59812 29.1328 8.98257 29.0044 9.88581C28.926 10.4374 29.2262 10.9779 29.683 11.2971C30.7114 12.0158 31.758 11.8752 32.45 11.3114L27.2281 0.935955Z" fill="#B9D3DB"/>
<path d="M9.4356 19.1971C11.6298 19.1971 11.0029 18.1175 13.3099 18.1175C15.0155 18.1175 15.1437 19.4468 15.1437 20.4482C15.1437 21.7578 16.2053 22.8195 17.5149 22.8195C18.8246 22.8195 19.8862 21.7579 19.8862 20.4482C19.8862 16.723 20.8038 17.8832 22.2575 17.8832C22.7202 17.8832 23.142 18.0197 23.4705 17.9239L18.3643 10.6836L18.3639 10.6831C17.8647 10.1019 17.2154 9.73861 16.5286 9.59334C15.3838 9.35118 14.1348 9.71442 13.3028 10.6831L7.61926 18.9103C7.94624 19.0634 8.49815 19.1971 9.4356 19.1971Z" fill="#CFE7E8"/>
</svg>
