<svg width="39" height="50" viewBox="0 0 39 50" fill="none" xmlns="http://www.w3.org/2000/svg">
<path opacity="0.5" d="M12.0833 12.5C12.0833 8.25 15.225 5 19.3333 5C23.4417 5 26.5833 8.25 26.5833 12.5V17.5H31.4167V12.5C31.4167 5.5 26.1 0 19.3333 0C12.5667 0 7.25 5.5 7.25 12.5V17.5H12.0833V12.5ZM22.9583 31.25C22.9583 29.25 21.2667 27.5 19.3333 27.5C17.4 27.5 15.7083 29.25 15.7083 31.25C15.7083 32.25 16.1917 33.25 16.9167 34V37.5C16.9167 39 17.8833 40 19.3333 40C20.7833 40 21.75 39 21.75 37.5V34C22.475 33.25 22.9583 32.25 22.9583 31.25Z" fill="#F3AB39"/>
<path d="M31.4167 17.5H7.25C3.14167 17.5 0 20.75 0 25V42.5C0 46.75 3.14167 50 7.25 50H31.4167C35.525 50 38.6667 46.75 38.6667 42.5V25C38.6667 20.75 35.525 17.5 31.4167 17.5ZM21.75 34V37.5C21.75 39 20.7833 40 19.3333 40C17.8833 40 16.9167 39 16.9167 37.5V34C16.1917 33.25 15.7083 32.25 15.7083 31.25C15.7083 29.25 17.4 27.5 19.3333 27.5C21.2667 27.5 22.9583 29.25 22.9583 31.25C22.9583 32.25 22.475 33.25 21.75 34Z" fill="#F3AB39"/>
</svg>
