<svg width="757" height="151" viewBox="0 0 757 151" fill="none" xmlns="http://www.w3.org/2000/svg">
<rect width="757" height="151" fill="#C4C4C4" fill-opacity="0.49"/>
<rect x="47" y="37" width="64" height="64" rx="32" fill="#032049"/>
<rect x="148" y="36" width="64" height="64" rx="32" fill="#026CB6"/>
<rect x="247" y="36" width="64" height="64" rx="32" fill="white"/>
<rect x="554" y="37" width="64" height="64" rx="32" fill="#00C2F0"/>
<rect x="455" y="37" width="64" height="64" rx="32" fill="#88D364"/>
<rect x="355" y="37" width="64" height="64" rx="32" fill="#E55982"/>
<path d="M56.82 113.504H58.044L58.188 112.34C58.252 111.828 58.296 111.444 58.32 111.188H59.352L59.208 112.34C59.144 112.852 59.092 113.24 59.052 113.504H60.288C60.256 113.96 60.228 114.288 60.204 114.488H58.944L58.8 115.724H60.036L60 116.072C59.968 116.288 59.944 116.504 59.928 116.72H58.68L58.416 119H57.396L57.66 116.72H56.448L56.34 117.608C56.3 117.912 56.248 118.376 56.184 119H55.152L55.416 116.72H54.3C54.364 116.264 54.404 115.932 54.42 115.724H55.548L55.692 114.488H54.576C54.6 114.344 54.616 114.22 54.624 114.116C54.632 114.004 54.64 113.912 54.648 113.84L54.684 113.504H55.8L56.088 111.188H57.108L56.82 113.504ZM56.712 114.488C56.64 115.072 56.588 115.484 56.556 115.724H57.78L57.924 114.488H56.712ZM64.6815 119.036C64.0335 119.036 63.4575 118.876 62.9535 118.556C62.4575 118.228 62.0695 117.76 61.7895 117.152C61.5095 116.544 61.3695 115.832 61.3695 115.016C61.3695 113.712 61.6615 112.72 62.2455 112.04C62.8375 111.352 63.6495 111.012 64.6815 111.02C65.3295 111.02 65.9015 111.18 66.3975 111.5C66.9015 111.82 67.2935 112.284 67.5735 112.892C67.8535 113.5 67.9935 114.208 67.9935 115.016C67.9935 115.848 67.8535 116.568 67.5735 117.176C67.2935 117.784 66.9015 118.248 66.3975 118.568C65.9015 118.888 65.3295 119.044 64.6815 119.036ZM64.6695 117.92C65.3495 117.92 65.8695 117.656 66.2295 117.128C66.5975 116.6 66.7855 115.888 66.7935 114.992C66.7855 114.12 66.5975 113.428 66.2295 112.916C65.8695 112.396 65.3495 112.136 64.6695 112.136C63.9975 112.136 63.4815 112.396 63.1215 112.916C62.7615 113.436 62.5775 114.136 62.5695 115.016C62.5775 115.904 62.7615 116.612 63.1215 117.14C63.4815 117.66 63.9975 117.92 64.6695 117.92ZM71.8578 114.008C72.4658 114.04 72.9658 114.248 73.3578 114.632C73.7498 115.016 73.9458 115.596 73.9458 116.372C73.9458 116.916 73.8218 117.396 73.5738 117.812C73.3258 118.22 72.9858 118.536 72.5538 118.76C72.1298 118.984 71.6618 119.096 71.1498 119.096C70.7738 119.096 70.3938 119.016 70.0098 118.856C69.6258 118.696 69.3098 118.488 69.0618 118.232L69.6618 117.272C69.8138 117.464 70.0258 117.628 70.2978 117.764C70.5698 117.9 70.8458 117.968 71.1258 117.968C71.5818 117.968 71.9658 117.816 72.2778 117.512C72.5898 117.208 72.7458 116.804 72.7458 116.3C72.7458 115.852 72.6098 115.496 72.3378 115.232C72.0738 114.96 71.7098 114.824 71.2458 114.824C70.8938 114.824 70.5538 114.884 70.2258 115.004L70.1898 114.956L71.9538 112.22H69.5298V111.104H73.6698L71.8578 114.008ZM80.5904 117.872V119H75.2144L75.6104 118.604C76.4264 117.788 77.0624 117.128 77.5184 116.624C77.9744 116.12 78.3544 115.612 78.6584 115.1C78.9704 114.58 79.1264 114.088 79.1264 113.624C79.1264 113.136 78.9824 112.764 78.6944 112.508C78.4064 112.252 78.0544 112.124 77.6384 112.124C77.3104 112.124 77.0344 112.192 76.8104 112.328C76.5944 112.464 76.4344 112.636 76.3304 112.844C76.2344 113.052 76.1864 113.26 76.1864 113.468C76.1864 113.98 76.3424 114.4 76.6544 114.728L75.9464 115.376C75.6824 115.216 75.4664 114.948 75.2984 114.572C75.1384 114.188 75.0584 113.828 75.0584 113.492C75.0584 113.052 75.1664 112.644 75.3824 112.268C75.6064 111.884 75.9264 111.58 76.3424 111.356C76.7584 111.124 77.2544 111.008 77.8304 111.008C78.3184 111.008 78.7504 111.124 79.1264 111.356C79.5104 111.58 79.8064 111.884 80.0144 112.268C80.2224 112.652 80.3264 113.072 80.3264 113.528C80.3264 113.984 80.2184 114.44 80.0024 114.896C79.7864 115.352 79.5184 115.78 79.1984 116.18C78.8864 116.58 78.4664 117.076 77.9384 117.668L77.7584 117.872H80.5904ZM84.8495 119.036C84.2015 119.036 83.6255 118.876 83.1215 118.556C82.6255 118.228 82.2375 117.76 81.9575 117.152C81.6775 116.544 81.5375 115.832 81.5375 115.016C81.5375 113.712 81.8295 112.72 82.4135 112.04C83.0055 111.352 83.8175 111.012 84.8495 111.02C85.4975 111.02 86.0695 111.18 86.5655 111.5C87.0695 111.82 87.4615 112.284 87.7415 112.892C88.0215 113.5 88.1615 114.208 88.1615 115.016C88.1615 115.848 88.0215 116.568 87.7415 117.176C87.4615 117.784 87.0695 118.248 86.5655 118.568C86.0695 118.888 85.4975 119.044 84.8495 119.036ZM84.8375 117.92C85.5175 117.92 86.0375 117.656 86.3975 117.128C86.7655 116.6 86.9535 115.888 86.9615 114.992C86.9535 114.12 86.7655 113.428 86.3975 112.916C86.0375 112.396 85.5175 112.136 84.8375 112.136C84.1655 112.136 83.6495 112.396 83.2895 112.916C82.9295 113.436 82.7455 114.136 82.7375 115.016C82.7455 115.904 82.9295 116.612 83.2895 117.14C83.6495 117.66 84.1655 117.92 84.8375 117.92ZM94.6058 116.192V117.092H93.5738V119H92.4098V117.092H88.7498V117.08L93.5618 111.008H93.5738V116.192H94.6058ZM92.4098 116.192V113.732L90.5018 116.192H92.4098ZM98.2433 111.14C98.7713 111.14 99.2513 111.26 99.6833 111.5C100.115 111.732 100.455 112.06 100.703 112.484C100.951 112.9 101.075 113.376 101.075 113.912C101.075 114.688 100.887 115.392 100.511 116.024C100.143 116.656 99.6873 117.208 99.1433 117.68C98.5993 118.144 97.9313 118.636 97.1393 119.156L96.3593 118.292C97.0553 117.94 97.6593 117.564 98.1713 117.164C98.6833 116.756 99.0713 116.352 99.3353 115.952C98.9593 116.256 98.4673 116.408 97.8593 116.408C97.4513 116.408 97.0633 116.3 96.6953 116.084C96.3353 115.86 96.0433 115.56 95.8193 115.184C95.5953 114.8 95.4833 114.372 95.4833 113.9C95.4833 113.356 95.6113 112.876 95.8673 112.46C96.1233 112.036 96.4593 111.712 96.8753 111.488C97.2993 111.256 97.7553 111.14 98.2433 111.14ZM96.6833 113.828C96.6833 114.3 96.8353 114.684 97.1393 114.98C97.4513 115.276 97.8353 115.424 98.2913 115.424C98.7553 115.424 99.1353 115.288 99.4313 115.016C99.7353 114.736 99.8873 114.384 99.8873 113.96V113.732C99.8713 113.308 99.7113 112.948 99.4073 112.652C99.1033 112.348 98.7313 112.196 98.2913 112.196C97.8353 112.196 97.4513 112.348 97.1393 112.652C96.8353 112.956 96.6833 113.348 96.6833 113.828Z" fill="black"/>
<path d="M157.82 113.504H159.044L159.188 112.34C159.252 111.828 159.296 111.444 159.32 111.188H160.352L160.208 112.34C160.144 112.852 160.092 113.24 160.052 113.504H161.288C161.256 113.96 161.228 114.288 161.204 114.488H159.944L159.8 115.724H161.036L161 116.072C160.968 116.288 160.944 116.504 160.928 116.72H159.68L159.416 119H158.396L158.66 116.72H157.448L157.34 117.608C157.3 117.912 157.248 118.376 157.184 119H156.152L156.416 116.72H155.3C155.364 116.264 155.404 115.932 155.42 115.724H156.548L156.692 114.488H155.576C155.6 114.344 155.616 114.22 155.624 114.116C155.632 114.004 155.64 113.912 155.648 113.84L155.684 113.504H156.8L157.088 111.188H158.108L157.82 113.504ZM157.712 114.488C157.64 115.072 157.588 115.484 157.556 115.724H158.78L158.924 114.488H157.712ZM165.682 119.036C165.034 119.036 164.458 118.876 163.954 118.556C163.458 118.228 163.07 117.76 162.79 117.152C162.51 116.544 162.37 115.832 162.37 115.016C162.37 113.712 162.662 112.72 163.246 112.04C163.838 111.352 164.65 111.012 165.682 111.02C166.33 111.02 166.902 111.18 167.398 111.5C167.902 111.82 168.294 112.284 168.574 112.892C168.854 113.5 168.993 114.208 168.993 115.016C168.993 115.848 168.854 116.568 168.574 117.176C168.294 117.784 167.902 118.248 167.398 118.568C166.902 118.888 166.33 119.044 165.682 119.036ZM165.67 117.92C166.35 117.92 166.87 117.656 167.23 117.128C167.598 116.6 167.786 115.888 167.794 114.992C167.786 114.12 167.598 113.428 167.23 112.916C166.87 112.396 166.35 112.136 165.67 112.136C164.998 112.136 164.482 112.396 164.122 112.916C163.762 113.436 163.578 114.136 163.57 115.016C163.578 115.904 163.762 116.612 164.122 117.14C164.482 117.66 164.998 117.92 165.67 117.92ZM175.45 117.872V119H170.074L170.47 118.604C171.286 117.788 171.922 117.128 172.378 116.624C172.834 116.12 173.214 115.612 173.518 115.1C173.83 114.58 173.986 114.088 173.986 113.624C173.986 113.136 173.842 112.764 173.554 112.508C173.266 112.252 172.914 112.124 172.498 112.124C172.17 112.124 171.894 112.192 171.67 112.328C171.454 112.464 171.294 112.636 171.19 112.844C171.094 113.052 171.046 113.26 171.046 113.468C171.046 113.98 171.202 114.4 171.514 114.728L170.806 115.376C170.542 115.216 170.326 114.948 170.158 114.572C169.998 114.188 169.918 113.828 169.918 113.492C169.918 113.052 170.026 112.644 170.242 112.268C170.466 111.884 170.786 111.58 171.202 111.356C171.618 111.124 172.114 111.008 172.69 111.008C173.178 111.008 173.61 111.124 173.986 111.356C174.37 111.58 174.666 111.884 174.874 112.268C175.082 112.652 175.186 113.072 175.186 113.528C175.186 113.984 175.078 114.44 174.862 114.896C174.646 115.352 174.378 115.78 174.058 116.18C173.746 116.58 173.326 117.076 172.798 117.668L172.618 117.872H175.45ZM179.637 113.936C180.045 113.936 180.429 114.048 180.789 114.272C181.157 114.488 181.453 114.788 181.677 115.172C181.901 115.556 182.013 115.984 182.013 116.456C182.013 116.976 181.885 117.436 181.629 117.836C181.373 118.236 181.033 118.548 180.609 118.772C180.185 118.988 179.733 119.096 179.253 119.096C178.717 119.096 178.233 118.968 177.801 118.712C177.377 118.456 177.041 118.092 176.793 117.62C176.545 117.148 176.421 116.596 176.421 115.964C176.421 115.012 176.757 114.124 177.429 113.3C178.109 112.476 178.985 111.72 180.057 111.032L180.837 111.884C180.125 112.236 179.529 112.648 179.049 113.12C178.569 113.584 178.217 114.064 177.993 114.56C178.409 114.144 178.957 113.936 179.637 113.936ZM179.205 118.052C179.661 118.052 180.041 117.904 180.345 117.608C180.657 117.312 180.813 116.928 180.813 116.456C180.813 116 180.657 115.632 180.345 115.352C180.041 115.064 179.661 114.92 179.205 114.92C178.917 114.92 178.649 114.984 178.401 115.112C178.161 115.232 177.969 115.4 177.825 115.616C177.681 115.824 177.609 116.052 177.609 116.3V116.516C177.609 116.788 177.681 117.044 177.825 117.284C177.969 117.516 178.161 117.704 178.401 117.848C178.649 117.984 178.917 118.052 179.205 118.052ZM190.124 118.352C189.844 118.536 189.488 118.708 189.056 118.868C188.632 119.02 188.168 119.096 187.664 119.096C186.776 119.096 185.992 118.9 185.312 118.508C184.64 118.116 184.12 117.588 183.752 116.924C183.392 116.26 183.212 115.528 183.212 114.728C183.212 113.872 183.396 113.104 183.764 112.424C184.132 111.736 184.64 111.2 185.288 110.816C185.944 110.424 186.684 110.228 187.508 110.228C187.996 110.228 188.452 110.292 188.876 110.42C189.3 110.548 189.68 110.716 190.016 110.924L189.548 112.016C188.884 111.568 188.216 111.344 187.544 111.344C186.984 111.344 186.464 111.492 185.984 111.788C185.512 112.084 185.132 112.488 184.844 113C184.564 113.504 184.424 114.06 184.424 114.668C184.424 115.292 184.552 115.856 184.808 116.36C185.072 116.864 185.444 117.26 185.924 117.548C186.412 117.828 186.972 117.968 187.604 117.968C188.38 117.968 189.056 117.748 189.632 117.308L190.124 118.352ZM195.948 114.5C196.444 114.692 196.836 114.968 197.124 115.328C197.412 115.68 197.556 116.092 197.556 116.564C197.556 117.116 197.42 117.576 197.148 117.944C196.884 118.304 196.532 118.572 196.092 118.748C195.66 118.916 195.184 119 194.664 119H192.084V110.324H194.328C195.216 110.324 195.904 110.508 196.392 110.876C196.88 111.236 197.124 111.78 197.124 112.508C197.124 112.964 197.02 113.364 196.812 113.708C196.612 114.044 196.324 114.308 195.948 114.5ZM193.248 114.116H194.568C195.016 114.116 195.352 113.988 195.576 113.732C195.808 113.476 195.924 113.148 195.924 112.748C195.924 112.308 195.788 111.98 195.516 111.764C195.244 111.548 194.864 111.44 194.376 111.44H193.248V114.116ZM194.616 117.92C195.12 117.92 195.536 117.808 195.864 117.584C196.192 117.352 196.356 117.016 196.356 116.576C196.356 116.12 196.176 115.784 195.816 115.568C195.464 115.352 195.036 115.244 194.532 115.244H193.248V117.92H194.616ZM201.938 113.936C202.346 113.936 202.73 114.048 203.09 114.272C203.458 114.488 203.754 114.788 203.978 115.172C204.202 115.556 204.314 115.984 204.314 116.456C204.314 116.976 204.186 117.436 203.93 117.836C203.674 118.236 203.334 118.548 202.91 118.772C202.486 118.988 202.034 119.096 201.554 119.096C201.018 119.096 200.534 118.968 200.102 118.712C199.678 118.456 199.342 118.092 199.094 117.62C198.846 117.148 198.722 116.596 198.722 115.964C198.722 115.012 199.058 114.124 199.73 113.3C200.41 112.476 201.286 111.72 202.358 111.032L203.138 111.884C202.426 112.236 201.83 112.648 201.35 113.12C200.87 113.584 200.518 114.064 200.294 114.56C200.71 114.144 201.258 113.936 201.938 113.936ZM201.506 118.052C201.962 118.052 202.342 117.904 202.646 117.608C202.958 117.312 203.114 116.928 203.114 116.456C203.114 116 202.958 115.632 202.646 115.352C202.342 115.064 201.962 114.92 201.506 114.92C201.218 114.92 200.95 114.984 200.702 115.112C200.462 115.232 200.27 115.4 200.126 115.616C199.982 115.824 199.91 116.052 199.91 116.3V116.516C199.91 116.788 199.982 117.044 200.126 117.284C200.27 117.516 200.462 117.704 200.702 117.848C200.95 117.984 201.218 118.052 201.506 118.052Z" fill="black"/>
<path d="M256.82 113.504H258.044L258.188 112.34C258.252 111.828 258.296 111.444 258.32 111.188H259.352L259.208 112.34C259.144 112.852 259.092 113.24 259.052 113.504H260.288C260.256 113.96 260.228 114.288 260.204 114.488H258.944L258.8 115.724H260.036L260 116.072C259.968 116.288 259.944 116.504 259.928 116.72H258.68L258.416 119H257.396L257.66 116.72H256.448L256.34 117.608C256.3 117.912 256.248 118.376 256.184 119H255.152L255.416 116.72H254.3C254.364 116.264 254.404 115.932 254.42 115.724H255.548L255.692 114.488H254.576C254.6 114.344 254.616 114.22 254.624 114.116C254.632 114.004 254.64 113.912 254.648 113.84L254.684 113.504H255.8L256.088 111.188H257.108L256.82 113.504ZM256.712 114.488C256.64 115.072 256.588 115.484 256.556 115.724H257.78L257.924 114.488H256.712ZM267.334 110.324V111.44H263.35V114.2H266.842V115.316H263.35V119H262.186V110.324H267.334ZM274.4 110.324V111.44H270.416V114.2H273.908V115.316H270.416V119H269.252V110.324H274.4ZM281.466 110.324V111.44H277.482V114.2H280.974V115.316H277.482V119H276.318V110.324H281.466ZM288.533 110.324V111.44H284.549V114.2H288.041V115.316H284.549V119H283.385V110.324H288.533ZM295.599 110.324V111.44H291.615V114.2H295.107V115.316H291.615V119H290.451V110.324H295.599ZM302.666 110.324V111.44H298.682V114.2H302.174V115.316H298.682V119H297.518V110.324H302.666Z" fill="black"/>
<path d="M364.82 113.504H366.044L366.188 112.34C366.252 111.828 366.296 111.444 366.32 111.188H367.352L367.208 112.34C367.144 112.852 367.092 113.24 367.052 113.504H368.288C368.256 113.96 368.228 114.288 368.204 114.488H366.944L366.8 115.724H368.036L368 116.072C367.968 116.288 367.944 116.504 367.928 116.72H366.68L366.416 119H365.396L365.66 116.72H364.448L364.34 117.608C364.3 117.912 364.248 118.376 364.184 119H363.152L363.416 116.72H362.3C362.364 116.264 362.404 115.932 362.42 115.724H363.548L363.692 114.488H362.576C362.6 114.344 362.616 114.22 362.624 114.116C362.632 114.004 362.64 113.912 362.648 113.84L362.684 113.504H363.8L364.088 111.188H365.108L364.82 113.504ZM364.712 114.488C364.64 115.072 364.588 115.484 364.556 115.724H365.78L365.924 114.488H364.712ZM375.826 110.324V111.44H371.35V114.08H375.346V115.196H371.35V117.872H375.993V119H370.186V110.324H375.826ZM379.861 113.84C380.381 113.84 380.825 113.956 381.193 114.188C381.569 114.42 381.853 114.732 382.045 115.124C382.237 115.508 382.333 115.94 382.333 116.42C382.333 116.916 382.217 117.368 381.985 117.776C381.761 118.184 381.449 118.508 381.049 118.748C380.657 118.98 380.213 119.096 379.717 119.096C379.309 119.096 378.909 119.02 378.517 118.868C378.125 118.716 377.805 118.52 377.557 118.28L378.181 117.368C378.341 117.552 378.553 117.7 378.817 117.812C379.081 117.924 379.349 117.98 379.621 117.98C380.061 117.98 380.421 117.84 380.701 117.56C380.989 117.272 381.133 116.904 381.133 116.456C381.133 115.968 380.997 115.576 380.725 115.28C380.461 114.976 380.081 114.824 379.585 114.824C379.321 114.824 379.065 114.864 378.817 114.944C378.577 115.016 378.325 115.128 378.061 115.28H378.049V111.104H381.829V112.22H379.057V113.936C379.313 113.872 379.581 113.84 379.861 113.84ZM386.143 113.84C386.663 113.84 387.107 113.956 387.475 114.188C387.851 114.42 388.135 114.732 388.327 115.124C388.519 115.508 388.615 115.94 388.615 116.42C388.615 116.916 388.499 117.368 388.267 117.776C388.043 118.184 387.731 118.508 387.331 118.748C386.939 118.98 386.495 119.096 385.999 119.096C385.591 119.096 385.191 119.02 384.799 118.868C384.407 118.716 384.087 118.52 383.839 118.28L384.463 117.368C384.623 117.552 384.835 117.7 385.099 117.812C385.363 117.924 385.631 117.98 385.903 117.98C386.343 117.98 386.703 117.84 386.983 117.56C387.271 117.272 387.415 116.904 387.415 116.456C387.415 115.968 387.279 115.576 387.007 115.28C386.743 114.976 386.363 114.824 385.867 114.824C385.603 114.824 385.347 114.864 385.099 114.944C384.859 115.016 384.607 115.128 384.343 115.28H384.331V111.104H388.111V112.22H385.339V113.936C385.595 113.872 385.863 113.84 386.143 113.84ZM392.556 111.14C393.084 111.14 393.564 111.26 393.996 111.5C394.428 111.732 394.768 112.06 395.016 112.484C395.264 112.9 395.388 113.376 395.388 113.912C395.388 114.688 395.2 115.392 394.824 116.024C394.456 116.656 394 117.208 393.456 117.68C392.912 118.144 392.244 118.636 391.452 119.156L390.672 118.292C391.368 117.94 391.972 117.564 392.484 117.164C392.996 116.756 393.384 116.352 393.648 115.952C393.272 116.256 392.78 116.408 392.172 116.408C391.764 116.408 391.376 116.3 391.008 116.084C390.648 115.86 390.356 115.56 390.132 115.184C389.908 114.8 389.796 114.372 389.796 113.9C389.796 113.356 389.924 112.876 390.18 112.46C390.436 112.036 390.772 111.712 391.188 111.488C391.612 111.256 392.068 111.14 392.556 111.14ZM390.996 113.828C390.996 114.3 391.148 114.684 391.452 114.98C391.764 115.276 392.148 115.424 392.604 115.424C393.068 115.424 393.448 115.288 393.744 115.016C394.048 114.736 394.2 114.384 394.2 113.96V113.732C394.184 113.308 394.024 112.948 393.72 112.652C393.416 112.348 393.044 112.196 392.604 112.196C392.148 112.196 391.764 112.348 391.452 112.652C391.148 112.956 390.996 113.348 390.996 113.828ZM396.133 116.504C396.133 115.952 396.285 115.484 396.589 115.1C396.893 114.708 397.257 114.424 397.681 114.248C397.417 114.08 397.213 113.884 397.069 113.66C396.925 113.428 396.853 113.148 396.853 112.82C396.853 112.476 396.941 112.168 397.117 111.896C397.301 111.616 397.549 111.4 397.861 111.248C398.181 111.088 398.537 111.008 398.929 111.008C399.313 111.008 399.665 111.088 399.985 111.248C400.305 111.4 400.557 111.612 400.741 111.884C400.925 112.148 401.017 112.444 401.017 112.772C401.017 113.116 400.945 113.404 400.801 113.636C400.657 113.86 400.449 114.064 400.177 114.248C400.609 114.432 400.977 114.72 401.281 115.112C401.585 115.496 401.737 115.96 401.737 116.504C401.737 116.96 401.613 117.388 401.365 117.788C401.117 118.18 400.777 118.496 400.345 118.736C399.913 118.976 399.437 119.096 398.917 119.096C398.397 119.096 397.925 118.98 397.501 118.748C397.077 118.508 396.741 118.188 396.493 117.788C396.253 117.388 396.133 116.96 396.133 116.504ZM397.981 112.952C397.981 113.2 398.077 113.412 398.269 113.588C398.469 113.764 398.697 113.852 398.953 113.852C399.209 113.852 399.429 113.764 399.613 113.588C399.805 113.412 399.901 113.2 399.901 112.952C399.901 112.672 399.809 112.44 399.625 112.256C399.441 112.072 399.217 111.98 398.953 111.98C398.689 111.98 398.461 112.072 398.269 112.256C398.077 112.44 397.981 112.672 397.981 112.952ZM397.321 116.456C397.321 116.752 397.393 117.028 397.537 117.284C397.681 117.532 397.873 117.732 398.113 117.884C398.361 118.036 398.629 118.112 398.917 118.112C399.213 118.112 399.485 118.036 399.733 117.884C399.989 117.732 400.193 117.532 400.345 117.284C400.497 117.028 400.573 116.752 400.573 116.456C400.573 116.16 400.501 115.888 400.357 115.64C400.213 115.392 400.013 115.196 399.757 115.052C399.509 114.9 399.237 114.824 398.941 114.824C398.653 114.824 398.385 114.896 398.137 115.04C397.889 115.184 397.689 115.384 397.537 115.64C397.393 115.888 397.321 116.16 397.321 116.456ZM408.102 117.872V119H402.726L403.122 118.604C403.938 117.788 404.574 117.128 405.03 116.624C405.486 116.12 405.866 115.612 406.17 115.1C406.482 114.58 406.638 114.088 406.638 113.624C406.638 113.136 406.494 112.764 406.206 112.508C405.918 112.252 405.566 112.124 405.15 112.124C404.822 112.124 404.546 112.192 404.322 112.328C404.106 112.464 403.946 112.636 403.842 112.844C403.746 113.052 403.698 113.26 403.698 113.468C403.698 113.98 403.854 114.4 404.166 114.728L403.458 115.376C403.194 115.216 402.978 114.948 402.81 114.572C402.65 114.188 402.57 113.828 402.57 113.492C402.57 113.052 402.678 112.644 402.894 112.268C403.118 111.884 403.438 111.58 403.854 111.356C404.27 111.124 404.766 111.008 405.342 111.008C405.83 111.008 406.262 111.124 406.638 111.356C407.022 111.58 407.318 111.884 407.526 112.268C407.734 112.652 407.838 113.072 407.838 113.528C407.838 113.984 407.73 114.44 407.514 114.896C407.298 115.352 407.03 115.78 406.71 116.18C406.398 116.58 405.978 117.076 405.45 117.668L405.27 117.872H408.102Z" fill="black"/>
<path d="M464.82 113.504H466.044L466.188 112.34C466.252 111.828 466.296 111.444 466.32 111.188H467.352L467.208 112.34C467.144 112.852 467.092 113.24 467.052 113.504H468.288C468.256 113.96 468.228 114.288 468.204 114.488H466.944L466.8 115.724H468.036L468 116.072C467.968 116.288 467.944 116.504 467.928 116.72H466.68L466.416 119H465.396L465.66 116.72H464.448L464.34 117.608C464.3 117.912 464.248 118.376 464.184 119H463.152L463.416 116.72H462.3C462.364 116.264 462.404 115.932 462.42 115.724H463.548L463.692 114.488H462.576C462.6 114.344 462.616 114.22 462.624 114.116C462.632 114.004 462.64 113.912 462.648 113.84L462.684 113.504H463.8L464.088 111.188H465.108L464.82 113.504ZM464.712 114.488C464.64 115.072 464.588 115.484 464.556 115.724H465.78L465.924 114.488H464.712ZM469.274 116.504C469.274 115.952 469.426 115.484 469.729 115.1C470.034 114.708 470.398 114.424 470.822 114.248C470.558 114.08 470.354 113.884 470.21 113.66C470.066 113.428 469.994 113.148 469.994 112.82C469.994 112.476 470.082 112.168 470.258 111.896C470.442 111.616 470.69 111.4 471.002 111.248C471.322 111.088 471.678 111.008 472.07 111.008C472.454 111.008 472.806 111.088 473.126 111.248C473.446 111.4 473.698 111.612 473.882 111.884C474.066 112.148 474.158 112.444 474.158 112.772C474.158 113.116 474.086 113.404 473.942 113.636C473.798 113.86 473.59 114.064 473.318 114.248C473.75 114.432 474.118 114.72 474.422 115.112C474.726 115.496 474.878 115.96 474.878 116.504C474.878 116.96 474.754 117.388 474.506 117.788C474.258 118.18 473.918 118.496 473.486 118.736C473.054 118.976 472.578 119.096 472.058 119.096C471.538 119.096 471.066 118.98 470.642 118.748C470.218 118.508 469.882 118.188 469.634 117.788C469.394 117.388 469.274 116.96 469.274 116.504ZM471.122 112.952C471.122 113.2 471.218 113.412 471.41 113.588C471.61 113.764 471.838 113.852 472.094 113.852C472.35 113.852 472.57 113.764 472.754 113.588C472.946 113.412 473.042 113.2 473.042 112.952C473.042 112.672 472.95 112.44 472.766 112.256C472.582 112.072 472.358 111.98 472.094 111.98C471.83 111.98 471.602 112.072 471.41 112.256C471.218 112.44 471.122 112.672 471.122 112.952ZM470.462 116.456C470.462 116.752 470.534 117.028 470.678 117.284C470.822 117.532 471.014 117.732 471.254 117.884C471.502 118.036 471.77 118.112 472.058 118.112C472.354 118.112 472.626 118.036 472.874 117.884C473.13 117.732 473.334 117.532 473.486 117.284C473.638 117.028 473.714 116.752 473.714 116.456C473.714 116.16 473.642 115.888 473.498 115.64C473.354 115.392 473.154 115.196 472.898 115.052C472.65 114.9 472.378 114.824 472.082 114.824C471.794 114.824 471.526 114.896 471.278 115.04C471.03 115.184 470.83 115.384 470.678 115.64C470.534 115.888 470.462 116.16 470.462 116.456ZM475.555 116.504C475.555 115.952 475.707 115.484 476.011 115.1C476.315 114.708 476.679 114.424 477.103 114.248C476.839 114.08 476.635 113.884 476.491 113.66C476.347 113.428 476.275 113.148 476.275 112.82C476.275 112.476 476.363 112.168 476.539 111.896C476.723 111.616 476.971 111.4 477.283 111.248C477.603 111.088 477.959 111.008 478.351 111.008C478.735 111.008 479.087 111.088 479.407 111.248C479.727 111.4 479.979 111.612 480.163 111.884C480.347 112.148 480.439 112.444 480.439 112.772C480.439 113.116 480.367 113.404 480.223 113.636C480.079 113.86 479.871 114.064 479.599 114.248C480.031 114.432 480.399 114.72 480.703 115.112C481.007 115.496 481.159 115.96 481.159 116.504C481.159 116.96 481.035 117.388 480.787 117.788C480.539 118.18 480.199 118.496 479.767 118.736C479.335 118.976 478.859 119.096 478.339 119.096C477.819 119.096 477.347 118.98 476.923 118.748C476.499 118.508 476.163 118.188 475.915 117.788C475.675 117.388 475.555 116.96 475.555 116.504ZM477.403 112.952C477.403 113.2 477.499 113.412 477.691 113.588C477.891 113.764 478.119 113.852 478.375 113.852C478.631 113.852 478.851 113.764 479.035 113.588C479.227 113.412 479.323 113.2 479.323 112.952C479.323 112.672 479.231 112.44 479.047 112.256C478.863 112.072 478.639 111.98 478.375 111.98C478.111 111.98 477.883 112.072 477.691 112.256C477.499 112.44 477.403 112.672 477.403 112.952ZM476.743 116.456C476.743 116.752 476.815 117.028 476.959 117.284C477.103 117.532 477.295 117.732 477.535 117.884C477.783 118.036 478.051 118.112 478.339 118.112C478.635 118.112 478.907 118.036 479.155 117.884C479.411 117.732 479.615 117.532 479.767 117.284C479.919 117.028 479.995 116.752 479.995 116.456C479.995 116.16 479.923 115.888 479.779 115.64C479.635 115.392 479.435 115.196 479.179 115.052C478.931 114.9 478.659 114.824 478.363 114.824C478.075 114.824 477.807 114.896 477.559 115.04C477.311 115.184 477.111 115.384 476.959 115.64C476.815 115.888 476.743 116.16 476.743 116.456ZM482.748 110.324H485.124C486.204 110.324 487.096 110.54 487.8 110.972C488.512 111.396 489.028 111.948 489.348 112.628C489.676 113.3 489.84 114.012 489.84 114.764C489.84 115.604 489.644 116.348 489.252 116.996C488.86 117.636 488.336 118.132 487.68 118.484C487.024 118.828 486.312 119 485.544 119H482.748V110.324ZM485.316 117.872C485.956 117.872 486.528 117.748 487.032 117.5C487.536 117.244 487.928 116.876 488.208 116.396C488.496 115.916 488.64 115.344 488.64 114.68C488.64 114 488.492 113.416 488.196 112.928C487.9 112.44 487.504 112.072 487.008 111.824C486.52 111.568 485.992 111.44 485.424 111.44H483.912V117.872H485.316ZM493.979 114.008C494.587 114.04 495.087 114.248 495.479 114.632C495.871 115.016 496.067 115.596 496.067 116.372C496.067 116.916 495.943 117.396 495.695 117.812C495.447 118.22 495.107 118.536 494.675 118.76C494.251 118.984 493.783 119.096 493.271 119.096C492.895 119.096 492.515 119.016 492.131 118.856C491.747 118.696 491.431 118.488 491.183 118.232L491.783 117.272C491.935 117.464 492.147 117.628 492.419 117.764C492.691 117.9 492.967 117.968 493.247 117.968C493.703 117.968 494.087 117.816 494.399 117.512C494.711 117.208 494.867 116.804 494.867 116.3C494.867 115.852 494.731 115.496 494.459 115.232C494.195 114.96 493.831 114.824 493.367 114.824C493.015 114.824 492.675 114.884 492.347 115.004L492.311 114.956L494.075 112.22H491.651V111.104H495.791L493.979 114.008ZM500.512 113.936C500.92 113.936 501.304 114.048 501.664 114.272C502.032 114.488 502.328 114.788 502.552 115.172C502.776 115.556 502.888 115.984 502.888 116.456C502.888 116.976 502.76 117.436 502.504 117.836C502.248 118.236 501.908 118.548 501.484 118.772C501.06 118.988 500.608 119.096 500.128 119.096C499.592 119.096 499.108 118.968 498.676 118.712C498.252 118.456 497.916 118.092 497.668 117.62C497.42 117.148 497.296 116.596 497.296 115.964C497.296 115.012 497.632 114.124 498.304 113.3C498.984 112.476 499.86 111.72 500.932 111.032L501.712 111.884C501 112.236 500.404 112.648 499.924 113.12C499.444 113.584 499.092 114.064 498.868 114.56C499.284 114.144 499.832 113.936 500.512 113.936ZM500.08 118.052C500.536 118.052 500.916 117.904 501.22 117.608C501.532 117.312 501.688 116.928 501.688 116.456C501.688 116 501.532 115.632 501.22 115.352C500.916 115.064 500.536 114.92 500.08 114.92C499.792 114.92 499.524 114.984 499.276 115.112C499.036 115.232 498.844 115.4 498.7 115.616C498.556 115.824 498.484 116.052 498.484 116.3V116.516C498.484 116.788 498.556 117.044 498.7 117.284C498.844 117.516 499.036 117.704 499.276 117.848C499.524 117.984 499.792 118.052 500.08 118.052ZM509.391 116.192V117.092H508.359V119H507.195V117.092H503.535V117.08L508.347 111.008H508.359V116.192H509.391ZM507.195 116.192V113.732L505.287 116.192H507.195Z" fill="black"/>
<path d="M563.82 113.504H565.044L565.188 112.34C565.252 111.828 565.296 111.444 565.32 111.188H566.352L566.208 112.34C566.144 112.852 566.092 113.24 566.052 113.504H567.288C567.256 113.96 567.228 114.288 567.204 114.488H565.944L565.8 115.724H567.036L567 116.072C566.968 116.288 566.944 116.504 566.928 116.72H565.68L565.416 119H564.396L564.66 116.72H563.448L563.34 117.608C563.3 117.912 563.248 118.376 563.184 119H562.152L562.416 116.72H561.3C561.364 116.264 561.404 115.932 561.42 115.724H562.548L562.692 114.488H561.576C561.6 114.344 561.616 114.22 561.624 114.116C561.632 114.004 561.64 113.912 561.648 113.84L561.684 113.504H562.8L563.088 111.188H564.108L563.82 113.504ZM563.712 114.488C563.64 115.072 563.588 115.484 563.556 115.724H564.78L564.924 114.488H563.712ZM571.682 119.036C571.034 119.036 570.458 118.876 569.954 118.556C569.458 118.228 569.07 117.76 568.79 117.152C568.51 116.544 568.37 115.832 568.37 115.016C568.37 113.712 568.662 112.72 569.246 112.04C569.838 111.352 570.65 111.012 571.682 111.02C572.33 111.02 572.902 111.18 573.398 111.5C573.902 111.82 574.294 112.284 574.574 112.892C574.854 113.5 574.993 114.208 574.993 115.016C574.993 115.848 574.854 116.568 574.574 117.176C574.294 117.784 573.902 118.248 573.398 118.568C572.902 118.888 572.33 119.044 571.682 119.036ZM571.67 117.92C572.35 117.92 572.87 117.656 573.23 117.128C573.598 116.6 573.786 115.888 573.794 114.992C573.786 114.12 573.598 113.428 573.23 112.916C572.87 112.396 572.35 112.136 571.67 112.136C570.998 112.136 570.482 112.396 570.122 112.916C569.762 113.436 569.578 114.136 569.57 115.016C569.578 115.904 569.762 116.612 570.122 117.14C570.482 117.66 570.998 117.92 571.67 117.92ZM579.17 119.036C578.522 119.036 577.946 118.876 577.442 118.556C576.946 118.228 576.558 117.76 576.278 117.152C575.998 116.544 575.858 115.832 575.858 115.016C575.858 113.712 576.15 112.72 576.734 112.04C577.326 111.352 578.138 111.012 579.17 111.02C579.818 111.02 580.39 111.18 580.886 111.5C581.39 111.82 581.782 112.284 582.062 112.892C582.342 113.5 582.482 114.208 582.482 115.016C582.482 115.848 582.342 116.568 582.062 117.176C581.782 117.784 581.39 118.248 580.886 118.568C580.39 118.888 579.818 119.044 579.17 119.036ZM579.158 117.92C579.838 117.92 580.358 117.656 580.718 117.128C581.086 116.6 581.274 115.888 581.282 114.992C581.274 114.12 581.086 113.428 580.718 112.916C580.358 112.396 579.838 112.136 579.158 112.136C578.486 112.136 577.97 112.396 577.61 112.916C577.25 113.436 577.066 114.136 577.058 115.016C577.066 115.904 577.25 116.612 577.61 117.14C577.97 117.66 578.486 117.92 579.158 117.92ZM590.534 118.352C590.254 118.536 589.898 118.708 589.466 118.868C589.042 119.02 588.578 119.096 588.074 119.096C587.186 119.096 586.402 118.9 585.722 118.508C585.05 118.116 584.53 117.588 584.162 116.924C583.802 116.26 583.622 115.528 583.622 114.728C583.622 113.872 583.806 113.104 584.174 112.424C584.542 111.736 585.05 111.2 585.698 110.816C586.354 110.424 587.094 110.228 587.918 110.228C588.406 110.228 588.862 110.292 589.286 110.42C589.71 110.548 590.09 110.716 590.426 110.924L589.958 112.016C589.294 111.568 588.626 111.344 587.954 111.344C587.394 111.344 586.874 111.492 586.394 111.788C585.922 112.084 585.542 112.488 585.254 113C584.974 113.504 584.834 114.06 584.834 114.668C584.834 115.292 584.962 115.856 585.218 116.36C585.482 116.864 585.854 117.26 586.334 117.548C586.822 117.828 587.382 117.968 588.014 117.968C588.79 117.968 589.466 117.748 590.042 117.308L590.534 118.352ZM597.27 117.872V119H591.894L592.29 118.604C593.106 117.788 593.742 117.128 594.198 116.624C594.654 116.12 595.034 115.612 595.338 115.1C595.65 114.58 595.806 114.088 595.806 113.624C595.806 113.136 595.662 112.764 595.374 112.508C595.086 112.252 594.734 112.124 594.318 112.124C593.99 112.124 593.714 112.192 593.49 112.328C593.274 112.464 593.114 112.636 593.01 112.844C592.914 113.052 592.866 113.26 592.866 113.468C592.866 113.98 593.022 114.4 593.334 114.728L592.626 115.376C592.362 115.216 592.146 114.948 591.978 114.572C591.818 114.188 591.738 113.828 591.738 113.492C591.738 113.052 591.846 112.644 592.062 112.268C592.286 111.884 592.606 111.58 593.022 111.356C593.438 111.124 593.934 111.008 594.51 111.008C594.998 111.008 595.43 111.124 595.806 111.356C596.19 111.58 596.486 111.884 596.694 112.268C596.902 112.652 597.006 113.072 597.006 113.528C597.006 113.984 596.898 114.44 596.682 114.896C596.466 115.352 596.198 115.78 595.878 116.18C595.566 116.58 595.146 117.076 594.618 117.668L594.438 117.872H597.27ZM604.181 110.324V111.44H600.197V114.2H603.689V115.316H600.197V119H599.033V110.324H604.181ZM608.596 119.036C607.948 119.036 607.372 118.876 606.868 118.556C606.372 118.228 605.984 117.76 605.704 117.152C605.424 116.544 605.284 115.832 605.284 115.016C605.284 113.712 605.576 112.72 606.16 112.04C606.752 111.352 607.564 111.012 608.596 111.02C609.244 111.02 609.816 111.18 610.312 111.5C610.816 111.82 611.208 112.284 611.488 112.892C611.768 113.5 611.908 114.208 611.908 115.016C611.908 115.848 611.768 116.568 611.488 117.176C611.208 117.784 610.816 118.248 610.312 118.568C609.816 118.888 609.244 119.044 608.596 119.036ZM608.584 117.92C609.264 117.92 609.784 117.656 610.144 117.128C610.512 116.6 610.7 115.888 610.708 114.992C610.7 114.12 610.512 113.428 610.144 112.916C609.784 112.396 609.264 112.136 608.584 112.136C607.912 112.136 607.396 112.396 607.036 112.916C606.676 113.436 606.492 114.136 606.484 115.016C606.492 115.904 606.676 116.612 607.036 117.14C607.396 117.66 607.912 117.92 608.584 117.92Z" fill="black"/>
<rect x="647" y="37" width="64" height="64" rx="32" fill="#E0E0E0"/>
<path d="M656.82 113.504H658.044L658.188 112.34C658.252 111.828 658.296 111.444 658.32 111.188H659.352L659.208 112.34C659.144 112.852 659.092 113.24 659.052 113.504H660.288C660.256 113.96 660.228 114.288 660.204 114.488H658.944L658.8 115.724H660.036L660 116.072C659.968 116.288 659.944 116.504 659.928 116.72H658.68L658.416 119H657.396L657.66 116.72H656.448L656.34 117.608C656.3 117.912 656.248 118.376 656.184 119H655.152L655.416 116.72H654.3C654.364 116.264 654.404 115.932 654.42 115.724H655.548L655.692 114.488H654.576C654.6 114.344 654.616 114.22 654.624 114.116C654.632 114.004 654.64 113.912 654.648 113.84L654.684 113.504H655.8L656.088 111.188H657.108L656.82 113.504ZM656.712 114.488C656.64 115.072 656.588 115.484 656.556 115.724H657.78L657.924 114.488H656.712ZM664.682 119.036C664.034 119.036 663.458 118.876 662.954 118.556C662.458 118.228 662.07 117.76 661.79 117.152C661.51 116.544 661.37 115.832 661.37 115.016C661.37 113.712 661.662 112.72 662.246 112.04C662.838 111.352 663.65 111.012 664.682 111.02C665.33 111.02 665.902 111.18 666.398 111.5C666.902 111.82 667.294 112.284 667.574 112.892C667.854 113.5 667.993 114.208 667.993 115.016C667.993 115.848 667.854 116.568 667.574 117.176C667.294 117.784 666.902 118.248 666.398 118.568C665.902 118.888 665.33 119.044 664.682 119.036ZM664.67 117.92C665.35 117.92 665.87 117.656 666.23 117.128C666.598 116.6 666.786 115.888 666.794 114.992C666.786 114.12 666.598 113.428 666.23 112.916C665.87 112.396 665.35 112.136 664.67 112.136C663.998 112.136 663.482 112.396 663.122 112.916C662.762 113.436 662.578 114.136 662.57 115.016C662.578 115.904 662.762 116.612 663.122 117.14C663.482 117.66 663.998 117.92 664.67 117.92ZM672.17 119.036C671.522 119.036 670.946 118.876 670.442 118.556C669.946 118.228 669.558 117.76 669.278 117.152C668.998 116.544 668.858 115.832 668.858 115.016C668.858 113.712 669.15 112.72 669.734 112.04C670.326 111.352 671.138 111.012 672.17 111.02C672.818 111.02 673.39 111.18 673.886 111.5C674.39 111.82 674.782 112.284 675.062 112.892C675.342 113.5 675.482 114.208 675.482 115.016C675.482 115.848 675.342 116.568 675.062 117.176C674.782 117.784 674.39 118.248 673.886 118.568C673.39 118.888 672.818 119.044 672.17 119.036ZM672.158 117.92C672.838 117.92 673.358 117.656 673.718 117.128C674.086 116.6 674.274 115.888 674.282 114.992C674.274 114.12 674.086 113.428 673.718 112.916C673.358 112.396 672.838 112.136 672.158 112.136C671.486 112.136 670.97 112.396 670.61 112.916C670.25 113.436 670.066 114.136 670.058 115.016C670.066 115.904 670.25 116.612 670.61 117.14C670.97 117.66 671.486 117.92 672.158 117.92ZM683.534 118.352C683.254 118.536 682.898 118.708 682.466 118.868C682.042 119.02 681.578 119.096 681.074 119.096C680.186 119.096 679.402 118.9 678.722 118.508C678.05 118.116 677.53 117.588 677.162 116.924C676.802 116.26 676.622 115.528 676.622 114.728C676.622 113.872 676.806 113.104 677.174 112.424C677.542 111.736 678.05 111.2 678.698 110.816C679.354 110.424 680.094 110.228 680.918 110.228C681.406 110.228 681.862 110.292 682.286 110.42C682.71 110.548 683.09 110.716 683.426 110.924L682.958 112.016C682.294 111.568 681.626 111.344 680.954 111.344C680.394 111.344 679.874 111.492 679.394 111.788C678.922 112.084 678.542 112.488 678.254 113C677.974 113.504 677.834 114.06 677.834 114.668C677.834 115.292 677.962 115.856 678.218 116.36C678.482 116.864 678.854 117.26 679.334 117.548C679.822 117.828 680.382 117.968 681.014 117.968C681.79 117.968 682.466 117.748 683.042 117.308L683.534 118.352ZM690.27 117.872V119H684.894L685.29 118.604C686.106 117.788 686.742 117.128 687.198 116.624C687.654 116.12 688.034 115.612 688.338 115.1C688.65 114.58 688.806 114.088 688.806 113.624C688.806 113.136 688.662 112.764 688.374 112.508C688.086 112.252 687.734 112.124 687.318 112.124C686.99 112.124 686.714 112.192 686.49 112.328C686.274 112.464 686.114 112.636 686.01 112.844C685.914 113.052 685.866 113.26 685.866 113.468C685.866 113.98 686.022 114.4 686.334 114.728L685.626 115.376C685.362 115.216 685.146 114.948 684.978 114.572C684.818 114.188 684.738 113.828 684.738 113.492C684.738 113.052 684.846 112.644 685.062 112.268C685.286 111.884 685.606 111.58 686.022 111.356C686.438 111.124 686.934 111.008 687.51 111.008C687.998 111.008 688.43 111.124 688.806 111.356C689.19 111.58 689.486 111.884 689.694 112.268C689.902 112.652 690.006 113.072 690.006 113.528C690.006 113.984 689.898 114.44 689.682 114.896C689.466 115.352 689.198 115.78 688.878 116.18C688.566 116.58 688.146 117.076 687.618 117.668L687.438 117.872H690.27ZM697.181 110.324V111.44H693.197V114.2H696.689V115.316H693.197V119H692.033V110.324H697.181ZM701.596 119.036C700.948 119.036 700.372 118.876 699.868 118.556C699.372 118.228 698.984 117.76 698.704 117.152C698.424 116.544 698.284 115.832 698.284 115.016C698.284 113.712 698.576 112.72 699.16 112.04C699.752 111.352 700.564 111.012 701.596 111.02C702.244 111.02 702.816 111.18 703.312 111.5C703.816 111.82 704.208 112.284 704.488 112.892C704.768 113.5 704.908 114.208 704.908 115.016C704.908 115.848 704.768 116.568 704.488 117.176C704.208 117.784 703.816 118.248 703.312 118.568C702.816 118.888 702.244 119.044 701.596 119.036ZM701.584 117.92C702.264 117.92 702.784 117.656 703.144 117.128C703.512 116.6 703.7 115.888 703.708 114.992C703.7 114.12 703.512 113.428 703.144 112.916C702.784 112.396 702.264 112.136 701.584 112.136C700.912 112.136 700.396 112.396 700.036 112.916C699.676 113.436 699.492 114.136 699.484 115.016C699.492 115.904 699.676 116.612 700.036 117.14C700.396 117.66 700.912 117.92 701.584 117.92Z" fill="black"/>
</svg>
